<?xml version="1.0" encoding="utf-8"?><svg xmlns="http://www.w3.org/2000/svg" xmlns:xlink="http://www.w3.org/1999/xlink"><symbol viewBox="0 0 500 500" id="icon-codepen" xmlns="http://www.w3.org/2000/svg"><g fill="#ffda44"><path d="M249.5 15C120 15 15 120 15 249.5S120 484 249.5 484 484 379 484 249.5 379.1 15 249.5 15zm0 442C135.1 457 42 363.9 42 249.5S135.2 42.1 249.5 42.1c114.4 0 207.5 93.1 207.5 207.5S363.9 457 249.5 457z"/><path d="M394.5 203.7c0-.2-.1-.4-.1-.5-.1-.4-.1-.7-.2-1-.1-.2-.1-.4-.2-.6l-.3-.9-.3-.6c-.1-.3-.3-.6-.4-.8-.1-.2-.2-.4-.4-.6-.2-.3-.3-.5-.5-.8-.1-.2-.3-.4-.4-.5-.2-.2-.4-.5-.6-.7l-.5-.5c-.2-.2-.5-.4-.7-.6-.2-.1-.4-.3-.6-.4-.1 0-.1-.1-.2-.2l-132.6-88.4c-4.2-2.8-9.6-2.8-13.8 0L110.1 195c-.1 0-.1.1-.2.2-.2.1-.4.3-.6.4-.2.2-.5.4-.7.6l-.5.5c-.2.2-.4.4-.6.7-.1.2-.3.4-.4.5-.2.2-.4.5-.5.8-.1.2-.2.4-.4.6-.2.3-.3.5-.4.8l-.3.6-.3.9c-.1.2-.1.4-.2.6-.1.3-.2.7-.2 1 0 .2-.1.4-.1.5-.1.5-.1 1.1-.1 1.6v88.4c0 .5 0 1.1.1 1.6 0 .2.1.4.1.5.1.4.1.7.2 1 .1.2.1.4.2.6l.3.9.3.6c.1.3.3.6.4.8.1.2.2.4.4.6.2.3.3.5.5.8.1.2.3.4.4.5.2.2.4.5.6.7l.5.5c.2.2.5.4.7.6.2.1.4.3.6.4.1 0 .1.1.2.2l132.6 88.4c2.1 1.4 4.5 2.1 6.9 2.1 2.4 0 4.8-.7 6.9-2.1L389 304.1c.1 0 .1-.1.2-.2.2-.1.4-.3.6-.4.2-.2.5-.4.7-.6l.5-.5c.2-.2.4-.4.6-.7.1-.2.3-.4.4-.5.2-.2.4-.5.5-.8.1-.2.2-.4.4-.6.2-.3.3-.5.4-.8l.3-.6.3-.9c.1-.2.1-.4.2-.6.1-.3.2-.7.2-1 0-.2.1-.4.1-.5.1-.5.1-1.1.1-1.6v-88.4c.1-.6 0-1.1 0-1.7zM262 140.3l97.7 65.1-43.7 29.2-54-36.1v-58.2zm-24.9 0v58.1l-54 36.1-43.6-29.2 97.6-65zm-107.6 88.4l31.2 20.9-31.2 20.9v-41.8zm107.6 130.1l-97.7-65.1 43.6-29.2 54 36.1v58.2zm12.4-79.8l-44.1-29.5 44.1-29.5 44.1 29.5-44.1 29.5zm12.5 79.8v-58.1l54-36.1 43.6 29.2-97.6 65zm107.6-88.4l-31.2-20.9 31.2-20.9v41.8z"/></g></symbol><symbol viewBox="0 0 536.11 536.11" id="icon-github" xmlns="http://www.w3.org/2000/svg"><path fill="#ffda44" d="M267.75 0c37.128 0 71.91 7.038 104.345 21.114 32.439 14.076 60.793 33.252 85.068 57.528 24.277 24.276 43.453 52.632 57.529 85.068 14.072 32.436 21.111 67.218 21.111 104.346 0 37.127-7.039 71.911-21.111 104.346-14.076 32.438-33.252 60.791-57.529 85.068-24.275 24.275-52.631 43.451-85.068 57.527-32.436 14.076-67.217 21.113-104.345 21.113s-71.91-7.037-104.346-21.111c-32.436-14.076-60.792-33.252-85.068-57.527-24.276-24.277-43.35-52.633-57.222-85.068C7.242 339.967.306 305.184.306 268.056s6.936-71.91 20.808-104.346 32.946-60.792 57.222-85.068 52.632-43.452 85.068-57.528S230.622 0 267.75 0zm0 29.376c-33.048 0-64.056 6.222-93.024 18.666S120.462 77.52 98.838 99.144s-38.658 46.92-51.102 75.888-18.666 59.976-18.666 93.024c0 33.047 6.222 64.055 18.666 93.024 12.444 28.969 29.478 54.264 51.102 75.889 21.624 21.623 46.92 38.658 75.888 51.102 28.968 12.443 59.976 18.666 93.024 18.666s64.056-6.223 93.025-18.666c28.967-12.441 54.264-29.479 75.887-51.102 21.625-21.625 38.658-46.92 51.102-75.889 12.445-28.971 18.666-59.979 18.666-93.024 0-33.046-6.221-64.056-18.666-93.024-12.441-28.968-29.477-54.264-51.102-75.888-21.623-21.624-46.92-38.658-75.887-51.102-28.969-12.444-59.977-18.666-93.025-18.666zm68.544 282.745c25.703-8.979 38.555-25.908 38.555-50.797 0-13.056-2.141-23.358-6.426-30.906-4.283-7.548-11.117-13.77-20.502-18.666-4.488-2.448-9.791-3.876-15.912-4.284-6.119-.408-12.645-.51-19.584-.306-6.936.204-14.277.612-22.031 1.224a295.367 295.367 0 0 1-46.51 0c-7.752-.612-15.096-1.02-22.032-1.224s-13.464-.102-19.584.306-11.424 1.836-15.912 4.284c-9.384 4.896-16.116 11.118-20.196 18.666s-6.12 17.85-6.12 30.906c0 24.889 12.852 41.82 38.556 50.797a393.222 393.222 0 0 0 14.688 3.672c4.488.813 10.098 1.631 16.83 2.445 6.732.816 14.586 1.227 23.562 1.227h26.927c8.568 0 16.32-.408 23.26-1.227 6.936-.814 12.852-1.633 17.748-2.445 5.707-1.225 10.603-2.449 14.683-3.672zm73.44-88.741c0 13.056-1.43 25.398-4.283 37.026-2.857 11.625-8.16 22.135-15.912 31.518-7.752 9.385-18.463 17.137-32.131 23.256-13.668 6.121-31.109 9.996-52.326 11.629a899.705 899.705 0 0 0 12.547 6.119c5.1 2.449 9.486 7.141 13.158 14.076 2.039 4.486 3.365 11.016 3.977 19.584.613 8.566.918 17.34.918 26.314 0 8.979-.102 17.238-.305 24.785-.205 7.549.102 12.141.918 13.771 1.631 3.264 3.979 6.119 7.037 8.566 3.061 2.447 5.611 4.283 7.65 5.508 2.039 1.227 2.65 2.756 1.836 4.592-.816 1.836-3.672 2.959-8.568 3.363-2.447 0-5.508-.404-9.18-1.223-3.672-.816-7.143-2.244-10.404-4.285a29.647 29.647 0 0 1-8.262-7.646c-2.244-3.063-3.365-7.039-3.365-11.938v-50.184c0-5.711-1.326-9.791-3.98-12.24-2.648-2.447-5.402-4.08-8.262-4.895v66.096c0 11.832 1.428 19.584 4.285 23.256 1.223 1.633 2.346 3.367 3.365 5.203s1.633 3.365 1.836 4.59c.205 1.223-.51 1.938-2.145 2.143-1.631.203-4.689-.307-9.18-1.529-8.568-2.039-14.688-6.732-18.359-14.076s-5.508-15.096-5.508-23.256v-64.871H261.63v64.871c0 8.16-1.734 15.912-5.202 23.256s-9.69 12.037-18.666 14.076c-4.488 1.225-7.446 1.732-8.874 1.529-1.428-.203-2.142-.92-2.142-2.143 0-1.225.612-2.754 1.836-4.59s2.448-3.57 3.672-5.203c.816-1.631 1.734-4.488 2.754-8.568 1.02-4.078 1.53-8.975 1.53-14.688v-66.096c-2.856.814-5.508 2.445-7.956 4.896-2.448 2.447-3.672 6.527-3.672 12.24v50.184c0 4.896-1.122 8.873-3.366 11.936-2.244 3.061-4.998 5.607-8.262 7.648-3.264 2.039-6.732 3.471-10.404 4.283-3.672.816-6.732 1.225-9.18 1.225-4.896-.406-7.752-1.527-8.568-3.363s-.204-3.367 1.836-4.59c2.04-1.227 4.59-3.063 7.65-5.512 3.06-2.445 5.406-5.303 7.038-8.564.816-2.041 1.122-7.447.918-16.221-.204-8.771-.306-18.463-.306-29.068-3.264 1.225-7.548 2.041-12.852 2.449-5.304.404-11.22 0-17.748-1.227-11.016-2.041-19.38-5.607-25.092-10.711-5.712-5.1-11.22-13.158-16.524-24.174-2.856-5.303-6.018-9.689-9.486-13.158-3.468-3.467-6.528-6.221-9.18-8.262-2.652-2.039-4.692-3.773-6.12-5.201-1.428-1.428-1.53-2.754-.306-3.979 2.448-2.855 5.814-4.08 10.098-3.674 4.284.408 6.834 1.021 7.65 1.836 4.896 2.039 9.792 6.324 14.688 12.854 4.896 6.531 9.996 12.037 15.3 16.523 2.448 2.039 5.508 4.078 9.18 6.119 3.672 2.039 7.752 3.471 12.24 4.283 4.488.816 9.384.816 14.688 0 5.304-.813 10.608-3.059 15.912-6.729 1.224-5.307 3.162-9.486 5.814-12.549 2.652-3.061 5.508-5.508 8.568-7.344 3.06-1.836 5.916-3.264 8.568-4.285 2.652-1.02 4.794-1.938 6.426-2.754-22.44-1.631-40.8-5.402-55.08-11.318s-25.602-13.467-33.966-22.646c-8.364-9.18-14.076-19.686-17.136-31.519-3.06-11.832-4.59-24.276-4.59-37.332 0-13.464 2.04-25.5 6.12-36.108s9.792-19.992 17.136-28.152c-3.264-9.792-4.386-20.094-3.366-30.906s3.162-20.502 6.426-29.07c15.504.816 28.458 4.08 38.862 9.792 10.404 5.712 17.646 10.404 21.726 14.076 17.544-4.896 35.7-7.344 54.468-7.344h4.284c17.543 0 34.479 2.04 50.795 6.12 4.488-3.672 11.832-8.16 22.033-13.464 10.199-5.304 22.85-8.364 37.943-9.18 3.264 8.16 5.406 17.34 6.426 27.54 1.021 10.2.307 19.992-2.141 29.376 8.16 8.16 14.48 17.85 18.971 29.07 4.489 11.228 6.733 23.978 6.733 38.258zm-143.208-14.076h1.224-1.224zm78.948 47.736c0 5.712-1.527 10.608-4.59 14.688-3.061 4.08-6.834 6.119-11.322 6.119-4.486 0-8.158-2.039-11.016-6.119-2.854-4.081-4.285-8.977-4.285-14.688s1.432-10.608 4.285-14.688c2.855-4.08 6.527-6.12 11.016-6.12s8.264 2.04 11.322 6.12c3.061 4.08 4.59 8.976 4.59 14.688zm-119.952 0c0 5.712-1.53 10.608-4.59 14.688s-6.834 6.119-11.322 6.119-8.16-2.039-11.016-6.119c-2.856-4.081-4.284-8.977-4.284-14.688s1.428-10.608 4.284-14.688 6.528-6.12 11.016-6.12 8.262 2.04 11.322 6.12c3.061 4.08 4.59 8.976 4.59 14.688z"/></symbol><symbol viewBox="0 0 128 128" id="icon-imac" xmlns="http://www.w3.org/2000/svg"><g fill="#FFDA44"><path d="M122 8H6c-3.3 0-6 2.7-6 6v80c0 3.3 2.7 6 6 6h46c0 1.719-.89 9.083-4.469 16H42v1.55a2.456 2.456 0 0 0 2.449 2.45h39.102A2.456 2.456 0 0 0 86 117.55V116h-5.531C76.89 109.083 76 101.719 76 100h46c3.3 0 6-2.7 6-6V14c0-3.3-2.7-6-6-6zM85 117v.55c0 .8-.65 1.45-1.449 1.45H44.449A1.45 1.45 0 0 1 43 117.55V117h42zm-5.657-1H48.656C52.123 109.112 53 101.744 53 100h22c0 1.744.877 9.114 4.343 16zM126 94c0 2.206-1.794 4-4 4H6c-2.206 0-4-1.794-4-4V83h124v11zm0-12H2V14c0-2.206 1.794-4 4-4h116c2.206 0 4 1.794 4 4v68z"/><path d="M118 14H10a4 4 0 0 0-4 4v56a4 4 0 0 0 4 4h108a4 4 0 0 0 4-4V18a4 4 0 0 0-4-4zm3 60c0 1.654-1.346 3-3 3H10c-1.654 0-3-1.346-3-3V18c0-1.654 1.346-3 3-3h108c1.654 0 3 1.346 3 3v56z"/></g></symbol><symbol viewBox="0 0 128 128" id="icon-iphone" xmlns="http://www.w3.org/2000/svg"><g fill="#FFDA44"><path d="M96 26V8c0-4.4-3.6-8-8-8H40c-4.4 0-8 3.6-8 8v8c-.55 0-1 .45-1 1v2c0 .55.45 1 1 1v6c-.55 0-1 .45-1 1v6c0 .55.45 1 1 1v2c-.55 0-1 .45-1 1v6c0 .55.45 1 1 1v76c0 4.4 3.6 8 8 8h48c4.4 0 8-3.6 8-8V36c.55 0 1-.45 1-1v-8c0-.55-.45-1-1-1zm-2 94c0 3.308-2.692 6-6 6H40c-3.308 0-6-2.692-6-6V8c0-3.308 2.692-6 6-6h48c3.308 0 6 2.692 6 6v112z"/><circle cx="53.5" cy="8.5" r=".5"/><path d="M56.5 9h15c.275 0 .5-.225.5-.5s-.225-.5-.5-.5h-15c-.275 0-.5.225-.5.5s.225.5.5.5zM64 116a4 4 0 1 0 0 8 4 4 0 0 0 0-8zm0 7c-1.654 0-3-1.346-3-3s1.346-3 3-3 3 1.346 3 3-1.346 3-3 3zM88.02 15H39.98A3.98 3.98 0 0 0 36 18.98v91.04a3.98 3.98 0 0 0 3.98 3.98h48.04a3.98 3.98 0 0 0 3.98-3.98V18.98A3.98 3.98 0 0 0 88.02 15zM91 110.02a2.984 2.984 0 0 1-2.98 2.98H39.98a2.984 2.984 0 0 1-2.98-2.98V18.98A2.984 2.984 0 0 1 39.98 16h48.04A2.984 2.984 0 0 1 91 18.98v91.04z"/></g></symbol><symbol viewBox="0 0 512 512" id="icon-mail" xmlns="http://www.w3.org/2000/svg"><path d="M174.545 302.545h-93.09c-6.982 0-11.636 4.655-11.636 11.636s4.655 11.636 11.636 11.636h93.091c6.982 0 11.636-4.655 11.636-11.636s-4.655-11.636-11.637-11.636zM139.636 244.364H46.545c-6.982 0-11.636 4.655-11.636 11.636s4.655 11.636 11.636 11.636h93.091c6.982 0 11.636-4.655 11.636-11.636s-4.654-11.636-11.636-11.636zM104.727 186.182H11.636C4.655 186.182 0 190.836 0 197.818s4.655 11.636 11.636 11.636h93.091c6.982 0 11.636-4.655 11.636-11.636s-4.654-11.636-11.636-11.636zM463.127 155.927c-3.491-4.655-11.636-5.818-16.291-2.327l-123.345 94.255c-12.8 9.309-30.255 9.309-43.055 0L157.091 153.6c-4.655-3.491-12.8-3.491-16.291 2.327-3.491 4.655-3.491 12.8 2.327 16.291l124.509 94.255c10.473 8.145 23.273 11.636 34.909 11.636s25.6-3.491 34.909-11.636L460.8 172.218c4.655-3.491 5.818-11.636 2.327-16.291z" data-original="#000000" class="eactive-path" data-old_color="#ffda44" fill="#ffda44"/><path d="M477.091 104.727H104.727c-6.982 0-11.636 4.655-11.636 11.636S97.745 128 104.727 128h372.364c6.982 0 11.636 4.655 11.636 11.636v232.727c0 6.982-4.655 11.636-11.636 11.636H104.727c-6.982 0-11.636 4.655-11.636 11.636 0 6.982 4.655 11.636 11.636 11.636h372.364c19.782 0 34.909-15.127 34.909-34.909V139.636c0-19.781-15.127-34.909-34.909-34.909z" data-original="#000000" class="eactive-path" data-old_color="#ffda44" fill="#ffda44"/><path d="M461.964 340.945l-69.818-69.818c-4.655-4.655-11.636-4.655-16.291 0s-4.655 11.636 0 16.291l69.818 69.818c2.327 2.327 5.818 3.491 8.145 3.491s5.818-1.164 8.146-3.491c4.654-4.654 4.654-11.636 0-16.291z" data-original="#000000" class="eactive-path" data-old_color="#ffda44" fill="#ffda44"/></symbol><symbol id="icon-telegram" viewBox="0 0 512 512" xmlns="http://www.w3.org/2000/svg"><style>.fst0{fill:#ffda44}</style><path class="fst0" d="M437 75C388.7 26.6 324.4 0 256 0S123.3 26.6 75 75C26.6 123.3 0 187.6 0 256s26.6 132.7 75 181c48.4 48.4 112.6 75 181 75s132.7-26.6 181-75 75-112.6 75-181-26.6-132.7-75-181zM256 486.3C129 486.3 25.7 383 25.7 256S129 25.7 256 25.7 486.3 129 486.3 256 383 486.3 256 486.3z"/><path class="fst0" d="M396 98.6c-2.5-1.9-5.8-2.2-8.6-.7L74.8 259.6c-2.7 1.4-4.4 4.2-4.4 7.2s1.7 5.8 4.5 7.2l81.8 40.9v81c0 2.1.7 4.2 2.2 5.8 1.6 1.7 3.8 2.6 5.9 2.6 1.4 0 2.7-.3 3.9-1l93.5-52 71.6 30.7c1.5.7 3.2.9 4.8.6 3.4-.6 5.8-3.2 6.5-6.4l18.1-90.6c1-5-2.8-9.7-7.9-9.7-3.9 0-7.2 2.7-7.9 6.5l-16.2 80.8-66.2-28.4c-2.3-1-4.9-.9-7.1.4l-85 47.2v-72.5c0-3.1-1.7-5.9-4.5-7.2l-72-36L379.9 120l-24.6 123c-1 5 2.8 9.7 7.9 9.7 3.9 0 7.2-2.7 7.9-6.5L399 106.7c.7-3.1-.5-6.2-3-8.1z"/><path class="fst0" d="M343.6 164.8c-2.5-3.2-7.1-4-10.6-1.9l-140.1 86.2c-2.4 1.5-3.8 4.1-3.8 6.9v86.2c0 3.8 2.6 7 6.2 7.9.6.1 1.2.2 1.9.2 3 0 5.8-1.7 7.2-4.5l31.8-63.5 106.9-106.9c2.7-2.8 3-7.4.5-10.6zm-119.9 107c-.6.6-1.1 1.3-1.5 2.1l-17 34v-47.5l77.6-47.8-59.1 59.2z"/></symbol></svg>